# xmcd
#
# Track frame offsets:
#	150
#	18119
#	27339
#
# Disc length: 552 seconds
#
# Revision: 1
# Processed by: cddbd v1.5.1PL0 Copyright (c) Steve Scherf et al.
# Submitted via: dBpowerAMP V4.0
#
DISCID=16022603
DTITLE=Iron and Wine - Passing Afternoon
DYEAR=2004
DGENRE=Folk
TTITLE0=Passing Afternoon
TTITLE1=Communion Cups and Someone's Coat
TTITLE2=Dearest Forsaken
EXTD=
EXTT0=
EXTT1=
EXTT2=
PLAYORDER=
